<svg width="73" height="58" viewBox="0 0 73 58" fill="none" xmlns="http://www.w3.org/2000/svg">
<path d="M68.5155 57.0219L62.7052 51.5087C62.5371 51.3491 62.2711 51.3558 62.1112 51.5236C61.9513 51.6913 61.958 51.9567 62.1261 52.1163L67.9364 57.6296C68.1046 57.7891 68.3706 57.7824 68.5305 57.6146C68.6904 57.4469 68.6837 57.1815 68.5155 57.0219Z" fill="white"/>
<path d="M69.3512 54.3686L63.5409 48.8553C63.3727 48.6958 63.1067 48.7024 62.9468 48.8702C62.7869 49.038 62.7936 49.3034 62.9618 49.463L68.7721 54.9762C68.9402 55.1358 69.2062 55.1291 69.3661 54.9613C69.526 54.7935 69.5193 54.5281 69.3512 54.3686Z" fill="white"/>
<path d="M72.3785 53.7944L66.5682 48.2811C66.4 48.1215 66.134 48.1282 65.9741 48.296C65.8142 48.4638 65.8209 48.7292 65.989 48.8888L71.7993 54.402C71.9675 54.5616 72.2335 54.5549 72.3934 54.3871C72.5533 54.2193 72.5466 53.9539 72.3785 53.7944Z" fill="white"/>
<path d="M57.5373 52.2575L52.1017 39.7381C52.0429 39.6023 51.9966 39.4597 51.979 39.313C51.9496 39.0673 51.9857 38.8274 52.0849 38.5885C52.2294 38.2421 52.5009 37.9579 52.8555 37.8321C52.8597 37.8304 52.8639 37.8287 52.8681 37.8279C53.2597 37.6929 53.69 37.7264 54.0707 37.89L66.3083 43.1308C66.4789 43.2038 66.6402 43.3019 66.7722 43.4327C66.9898 43.649 67.1293 43.9266 67.168 44.2821C67.168 44.288 67.1697 44.2947 67.1697 44.3006C67.2453 44.9974 66.7814 45.633 66.1015 45.8083C65.3687 45.997 64.6158 46.3005 63.8418 46.7189C62.6207 47.3797 61.6156 48.3885 60.9878 49.6253C60.5912 50.4068 60.2601 51.2571 59.9802 52.1627C59.9517 52.255 59.9147 52.3447 59.8617 52.4252C59.6895 52.6893 59.3869 52.8746 58.8129 52.8948C58.1986 52.9191 57.7995 52.6734 57.5364 52.2575H57.5373Z" fill="url(#paint0_linear_2022_2)"/>
<path d="M49.5167 38.0344C49.4259 37.7627 49.3747 37.5791 49.331 37.3737C49.2234 36.8932 49.4436 36.3389 49.4436 36.3389C49.6705 35.7964 50.0957 35.3503 50.6512 35.1532C50.6579 35.1507 50.6647 35.1482 50.6714 35.1457C51.2849 34.9335 51.9605 34.9863 52.5572 35.2421L61.6988 38.8386C62.124 39.0205 62.598 38.7094 62.598 38.2483C62.598 38.2449 62.598 38.2415 62.598 38.2382L62.2837 10.8574C62.2837 4.86017 57.412 0 51.4033 0H10.8804C4.87083 0 0 4.86017 0 10.8566V37.1665C0 43.2292 4.97083 48.1891 11.0468 48.1891H51.4336H52.1689C52.4883 48.1891 52.6967 47.8764 52.569 47.546L49.5167 38.0336V38.0344Z" fill="url(#paint1_linear_2022_2)"/>
<path d="M13.609 10.3213H6.09692V18.5876H13.609V10.3213Z" fill="#E8B832"/>
<path d="M31.1318 10.3213H23.6197V18.5876H31.1318V10.3213Z" fill="#E8B832"/>
<path d="M23.6197 20.457L23.5827 27.7381C23.3633 31.2339 21.8288 33.1701 18.6144 33.1131C15.4747 33.2011 13.8427 31.3857 13.6091 27.7959V20.457H6.09695V29.1024C6.09695 34.8816 10.7921 39.5665 16.584 39.5665H20.6086C26.4206 39.5665 31.1326 34.8648 31.1326 29.0655V20.457H23.6205H23.6197Z" fill="#E8B832"/>
<path d="M45.0207 23.2756H42.0189V20.459H34.574V38.7928H42.1096V29.407H47.2443C50.9294 29.407 52.8614 28.1677 54.3119 26.4696C54.3119 26.4696 56.2792 24.0077 56.2792 20.459H48.7763C48.2503 23.4391 45.0215 23.2756 45.0215 23.2756H45.0207Z" fill="#E8B832"/>
<path d="M45.0207 15.9071C45.0207 15.9071 48.1511 15.7478 48.7494 18.5871H56.2784C56.049 15.7268 55.2145 14.3969 54.3295 13.2967C52.7488 11.4025 50.326 10.2646 47.4603 10.3224H34.5731V18.5871H42.018V15.9071H45.0198H45.0207Z" fill="#E8B832"/>
<defs>
<linearGradient id="paint0_linear_2022_2" x1="51.9689" y1="45.3203" x2="67.1789" y2="45.3203" gradientUnits="userSpaceOnUse">
<stop stop-color="#4B7CBC"/>
<stop offset="1" stop-color="#5E9DD4"/>
</linearGradient>
<linearGradient id="paint1_linear_2022_2" x1="0" y1="24.0946" x2="62.598" y2="24.0946" gradientUnits="userSpaceOnUse">
<stop stop-color="#862225"/>
<stop offset="0.29" stop-color="#892225"/>
<stop offset="0.56" stop-color="#952426"/>
<stop offset="0.82" stop-color="#A82828"/>
<stop offset="1" stop-color="#BA2C2B"/>
</linearGradient>
</defs>
</svg>
